PathFileType	4	(X/Y/Z)	C:/Users/opensim2020/Desktop/walking_exp_matlab/subject06_walking16_straight_01.trc	
DataRate	CameraRate	NumFrames	NumMarkers	Units	OrigDataRate	OrigDataStartFrame	OrigNumFrames	
100.00	100.00	4	51	mm	100.00	1079	333	
Frame#	Time	LFHD			RFHD			LBHD			RBHD			C7			T10			CLAV			STRN			RBAK			LSHO			LUPA			LELB			LFRM			LWRA			LWRB			LFIN			RSHO			RUPA			RELB			RFRM			RWRA			RWRB			RFIN			LASI			RASI			LPSI			RPSI			LTHI			LKNE			LTIB			LANK			LHEE			LTOE			RTHI			RKNE			RTIB			RANK			RHEE			RTOE			*39			*40			*41			*42			*43			*44			*45			*46			*47			*48			*49			*50			
		X1	Y1	Z1	X2	Y2	Z2	X3	Y3	Z3	X4	Y4	Z4	X5	Y5	Z5	X6	Y6	Z6	X7	Y7	Z7	X8	Y8	Z8	X9	Y9	Z9	X10	Y10	Z10	X11	Y11	Z11	X12	Y12	Z12	X13	Y13	Z13	X14	Y14	Z14	X15	Y15	Z15	X16	Y16	Z16	X17	Y17	Z17	X18	Y18	Z18	X19	Y19	Z19	X20	Y20	Z20	X21	Y21	Z21	X22	Y22	Z22	X23	Y23	Z23	X24	Y24	Z24	X25	Y25	Z25	X26	Y26	Z26	X27	Y27	Z27	X28	Y28	Z28	X29	Y29	Z29	X30	Y30	Z30	X31	Y31	Z31	X32	Y32	Z32	X33	Y33	Z33	X34	Y34	Z34	X35	Y35	Z35	X36	Y36	Z36	X37	Y37	Z37	X38	Y38	Z38	X39	Y39	Z39	X40	Y40	Z40	X41	Y41	Z41	X42	Y42	Z42	X43	Y43	Z43	X44	Y44	Z44	X45	Y45	Z45	X46	Y46	Z46	X47	Y47	Z47	X48	Y48	Z48	X49	Y49	Z49	X50	Y50	Z50	X51	Y51	Z51	

209	2.080	-1070.20764	269.43985	1646.53381	-938.84192	260.03903	1635.65771	-1080.82043	136.76614	1594.47168	-951.88062	129.00391	1587.75110	-1019.75232	128.37930	1436.94580	-1007.70178	84.89641	1108.42334	-1014.64612	236.45250	1358.22424	-1012.28119	272.28439	1181.99341	-935.18500	48.10286	1271.26636	-1179.01050	182.87334	1384.30200	-1241.85193	141.30798	1185.22693	-1245.64465	110.16361	1076.49817	-1259.53101	101.97491	924.91083	-1209.77405	135.58568	802.84595	-1249.73132	76.28000	808.56580	-1244.32959	99.32111	720.55914	-855.19092	190.31284	1394.03308	-763.09448	161.30183	1195.71643	-749.34296	178.89569	1074.73096	-733.93384	209.42018	958.24023	-770.25531	284.29846	829.09985	-726.88367	233.98196	822.89966	-727.92999	281.87112	753.59082	-1095.41565	277.50778	948.32996	-878.07837	248.43268	950.72211	-1091.95129	116.45830	976.15161	-923.61682	101.03516	979.94116	-1170.92224	249.78110	637.19482	-1142.36035	276.64490	479.87399	-1139.08813	309.81769	226.55684	-1098.40002	359.12061	61.60592	-1047.82166	327.34283	45.02583	-1105.14636	505.58191	47.53800	-835.58923	137.68039	621.57892	-853.36420	116.51749	496.09732	-866.15961	-38.27423	272.97424	-914.93787	-128.99689	110.16811	-962.48761	-172.05397	101.27352	-910.21149	1.15125	30.39825	-1018.49438	165.82648	1686.29895																																	 
210	2.090	-1071.75183	277.43634	1647.20154	-940.42798	267.68146	1636.48438	-1082.77893	144.84451	1595.02954	-953.85510	136.59946	1588.48352	-1021.86780	136.35973	1437.49890	-1009.89221	93.46364	1108.90454	-1016.03973	244.45174	1358.96350	-1013.65582	280.72971	1182.86060	-937.91919	55.89141	1271.61536	-1180.79541	192.24408	1384.82495	-1244.04749	151.84412	1185.49097	-1247.98950	120.84721	1076.69995	-1261.86646	113.39084	925.02289	-1211.76855	146.43660	803.16113	-1252.20203	87.92028	808.60742	-1246.40942	110.96706	720.72260	-856.86560	197.33818	1394.62415	-765.21222	167.80151	1196.13196	-751.31067	185.42763	1075.19299	-735.43048	215.21068	958.55719	-770.70050	289.43912	828.84412	-727.61981	238.76880	823.13739	-728.11664	286.17221	753.52594	-1096.47058	286.42712	949.31873	-879.32928	256.92010	951.36304	-1093.49023	125.18159	977.23987	-925.22021	109.34226	980.13275	-1172.67114	256.71909	638.04712	-1144.59802	282.56833	480.19336	-1140.53674	313.47479	226.53816	-1098.81543	360.73462	61.14747	-1048.33423	328.47894	45.53976	-1104.99048	506.93210	44.45557	-836.16699	147.40944	621.67188	-853.50641	126.85562	496.04791	-866.34454	-31.79467	275.66360	-914.97729	-125.68524	114.74891	-962.61792	-168.68912	107.11885	-910.40698	1.47714	30.53086	-1020.40704	173.59772	1686.95349																																	 
211	2.100	-1073.41858	285.38153	1648.04700	-941.98395	275.16928	1637.39478	-1084.74622	152.82175	1595.82751	-955.87970	144.12517	1589.20251	-1023.98083	144.18625	1438.17969	-1011.97632	101.72721	1109.69556	-1017.52814	252.56517	1359.86816	-1015.10651	289.14334	1183.84656	-940.64716	63.79489	1272.08606	-1182.60461	201.55595	1385.62939	-1246.22327	162.62140	1185.99756	-1250.67834	132.17691	1077.08777	-1264.38733	125.45634	925.40497	-1213.61145	157.90248	803.64941	-1254.94495	99.97001	808.85815	-1248.66833	123.06972	721.03699	-858.60510	204.35631	1395.47058	-767.38568	174.25986	1196.86182	-753.40845	191.94734	1075.91418	-736.99701	220.94986	959.14569	-771.13464	294.71997	828.97382	-728.84460	243.21765	823.39117	-728.38135	290.28769	753.64301	-1097.93774	294.95380	950.48676	-881.06458	265.23618	952.16638	-1094.91638	133.65930	978.43921	-926.72137	117.53609	980.56647	-1174.30811	263.57916	638.87354	-1146.57910	288.85461	480.77115	-1141.76746	317.61703	226.76790	-1098.97656	362.47894	61.04321	-1048.58765	329.57990	46.09450	-1104.66296	508.42722	42.94885	-836.70197	157.59055	621.89880	-853.51276	137.87692	496.17844	-866.38055	-24.69816	278.64111	-914.95032	-121.89032	119.81542	-962.62158	-164.78363	113.59161	-910.64691	1.95803	30.75010	-1022.35443	181.39790	1687.72803																																	 
212	2.110	-1075.02783	293.35730	1649.03430	-943.61450	282.74216	1638.54810	-1086.69873	160.83517	1596.75586	-957.81348	151.71104	1590.29749	-1026.13806	152.12267	1439.00586	-1013.98328	110.08605	1110.56348	-1019.04095	260.61603	1360.94763	-1016.53918	297.39798	1184.99402	-943.20892	71.57413	1272.80920	-1184.34595	210.73749	1386.62097	-1248.36267	173.47383	1186.65369	-1253.00330	143.77777	1077.53223	-1266.72986	137.62436	925.86377	-1215.46057	169.80745	804.33350	-1257.97278	112.50792	809.39154	-1251.10974	135.65894	721.56573	-860.32935	211.38719	1396.53784	-769.60120	180.87350	1197.80139	-755.48865	198.42354	1076.90417	-738.57288	226.52451	959.94781	-771.53949	299.47903	828.95551	-729.64545	247.47186	824.16907	-728.65594	294.14838	753.95361	-1099.83704	303.19159	951.81250	-882.84351	273.82983	953.11194	-1096.33569	141.90448	979.72980	-928.25421	125.97251	981.14667	-1176.06738	270.53970	640.08026	-1148.20972	295.23663	481.55450	-1142.84277	321.93259	227.11642	-1099.02307	363.79053	61.10545	-1048.85388	330.42740	46.54377	-1104.06824	509.59833	41.69730	-837.23566	168.06453	622.25708	-853.39569	149.39401	496.30743	-866.43408	-16.87202	281.81113	-914.83093	-117.47491	125.19633	-962.77557	-160.01683	120.40810	-910.86285	2.59131	30.96205	-1024.32349	189.15063	1688.82141																																	 
